<?xml version="1.0" encoding="utf-8"?>
<!-- Generator: Adobe Illustrator 21.1.0, SVG Export Plug-In . SVG Version: 6.00 Build 0)  -->
<svg version="1.1" id="Capa_1" xmlns="http://www.w3.org/2000/svg" xmlns:xlink="http://www.w3.org/1999/xlink" x="0px" y="0px"
	 viewBox="0 0 288 72" style="enable-background:new 0 0 288 72;" xml:space="preserve">
<style type="text/css">
	.st0{opacity:0.7;fill:#FFFFFF;}
	.st1{opacity:0.7;fill:#CDCCCC;}
	.st2{opacity:0.7;}
	.st3{fill:#FFFFFF;}
</style>
<path class="st0" d="M26.4,50.5c2.7-0.6,4.4-1.8,4.4-1.8c2-1.3,3.5-3.4,3.9-5.9l3.5-14.4c0.3-1.6,0.7-3,1.4-4.4
	c3.1-6.5,10.2-10.4,17.7-9.1c6.4,1.1,11.4,5.7,13.1,11.5c1.4,4.9,1.8,10.1,0.9,15.4C68,60.8,50,73.5,31.1,70.3
	c-19-3.2-31.7-21.2-28.5-40.1c3.2-19,21.2-31.7,40.1-28.5c7.3,1.2,13.6,4.6,18.5,9.4L61,11.2c-1-0.3-2-0.6-3.1-0.8
	c-3.6-0.6-7.1-0.3-10.3,0.8c-2-0.9-4.1-1.5-6.3-1.9c-6.3-1-12.6,0.3-17.9,3.3c1.4,2.1,2.3,4.4,2.6,7v0.2c0.6,3.6,3.4,6.6,7.2,7.3
	c0.2,0,0.4,0.1,0.7,0.1l-2,7.6c-7.4-1.2-12.8-7.2-13.7-14.3l0,0c-0.2-1.1-0.5-2.1-1-3l0,0c-3.6,3.8-6.1,8.6-7,14
	c-2.5,14.7,7.4,28.6,22.1,31.1s28.6-7.4,31.1-22.1c0.7-4,0.4-8-0.6-11.6l-0.3-0.7c-1-2.8-3.5-5.1-6.7-5.6c-3.9-0.7-7.7,1.4-9.3,4.8
	c-0.3,0.7-0.6,1.5-0.7,2.3l-3.5,14.4c-1.1,6.6-6,11.6-12.1,13.2l-1.4,0.3c-3.3-1.2-6.1-3.1-8.5-5.5L26.4,50.5z"/>
<path class="st1" d="M101.5,58.7V43.3L89.6,21h9.7l3.9,9c1.2,2.7,2,4.7,2.9,7.2h0.1c0.8-2.3,1.7-4.5,2.8-7.2l3.8-9h9.6L110,43v15.7
	H101.5z"/>
<polygon class="st1" points="241.8,42.8 227.9,42.8 227.9,51.7 243.4,51.7 243.4,58.7 219.4,58.7 219.4,21 242.6,21 242.6,28 
	227.9,28 227.9,35.8 241.8,35.8 "/>
<path class="st1" d="M254.8,58.7V21h9.9l7.8,13.8c2.2,4,4.5,8.7,6.1,12.9h0.2c-0.6-5-0.7-10.1-0.7-15.7V21h7.8v37.6H277l-8-14.5
	c-2.2-4-4.7-8.9-6.5-13.3l-0.2,0.1c0.2,5,0.3,10.3,0.3,16.4v11.3h-7.8L254.8,58.7L254.8,58.7z"/>
<g class="st2">
	<path class="st3" d="M145,59.2c2.7-1.9,4.9-4.6,6.1-7.8c-1,0.7-2.3,1.1-3.8,1.1c-4.4,0-6.8-3.3-6.8-9.8V21H132v21
		C132,53.1,136.8,58.5,145,59.2z"/>
	<rect x="140.2" y="14.4" class="st3" width="14.5" height="3.3"/>
	<path class="st3" d="M154.3,21v21.7c0,0.6,0,1.1-0.1,1.6c0,0.3,0,0.5,0,0.8c0,5.6-2.4,10.7-6.3,14.2c9.3-0.3,14.8-5.9,14.8-17.1V21
		H154.3z"/>
</g>
<path class="st1" d="M195.4,27.7c-7.1,0-12.5,4-12.5,12.2c0,7.8,4.9,12.3,11.8,12.3h4.2v-8.4h-5.8v-6.6h14v21.9h-12.6
	c-6.9,0-11.8-1.7-15.3-5.1c-3.5-3.2-5.4-8.2-5.3-13.7c0.1-12.5,9.2-19.7,21.5-19.7h11.7l-0.1,7L195.4,27.7L195.4,27.7z"/>
</svg>
