<?xml version="1.0" encoding="utf-8"?>
<!-- Generator: Adobe Illustrator 16.0.0, SVG Export Plug-In . SVG Version: 6.00 Build 0)  -->
<!DOCTYPE svg PUBLIC "-//W3C//DTD SVG 1.1//EN" "http://www.w3.org/Graphics/SVG/1.1/DTD/svg11.dtd">
<svg version="1.1" id="Capa_1" xmlns="http://www.w3.org/2000/svg" xmlns:xlink="http://www.w3.org/1999/xlink" x="0px" y="0px"
	 width="300px" height="230px" viewBox="0 0 300 230" enable-background="new 0 0 300 230" xml:space="preserve">
<g>
	<g>
		<path fill-rule="evenodd" clip-rule="evenodd" fill="#FFFFFF" d="M52.389,31.031c3.866,0,7.005,3.134,7.005,7.004
			c0,3.862-3.139,7.004-7.005,7.004c-3.869,0-7.001-3.142-7.001-7.004C45.388,34.165,48.52,31.031,52.389,31.031 M26.092,115.075
			c3.867,0,7.005,3.136,7.005,7.004c0,3.862-3.138,7.007-7.005,7.007c-3.87,0-7.001-3.145-7.001-7.007
			C19.091,118.211,22.222,115.075,26.092,115.075 M89.093,31.031c-9.265,0-9.265,14.008,0,14.008h32.585
			c9.268,0,9.268,14.005,0,14.005H97.448c-9.261,0-9.267,14.007,0,14.007h33.848h3.598c9.268,0,9.263,14.01,0,14.01h-3.598H78.814
			c-9.245,0-9.268,14.008,0,14.008h14.21h5.574c9.266,0,9.252,14.007,0,14.007H54.555H52.61c-9.246,0-9.265,14.011,0,14.011h55.578
			h3.602c9.266,0,9.261,14.004,0,14.004H91.872c-9.261,0-9.266,14.008,0,14.008h46.523l11.105-41.454
			c0.88-3.293,3.305-5.784,6.282-6.908l10.329-38.558c1.562-5.817,1.654-7.519,1.302-14.249
			c-0.611-11.722-7.741-17.723-16.396-22.436c-3.705-2.019-10.955-2.462-18.679-2.462H89.093z"/>
	</g>
	<g>
		<defs>
			<path id="SVGID_1_" d="M19.091,122.079c0,3.865,3.131,7.007,7.001,7.007c3.867,0,7.005-3.142,7.005-7.007
				c0-3.868-3.138-7.004-7.005-7.004C22.222,115.075,19.091,118.211,19.091,122.079 M45.388,38.035c0,3.862,3.131,7.004,7.002,7.004
				c3.866,0,7.003-3.142,7.003-7.004c0-3.87-3.137-7.005-7.003-7.005C48.519,31.03,45.388,34.165,45.388,38.035 M89.094,31.03
				c-9.266,0-9.266,14.009,0,14.009h32.584c9.268,0,9.268,14.005,0,14.005h-24.23c-9.261,0-9.266,14.008,0,14.008h33.849h3.597
				c9.269,0,9.264,14.011,0,14.011h-3.597H78.814c-9.246,0-9.269,14.006,0,14.006h14.211H98.6c9.265,0,9.251,14.007,0,14.007H54.554
				H52.61c-9.246,0-9.265,14.011,0,14.011h55.578h3.602c9.266,0,9.261,14.007,0,14.007H91.872c-9.261,0-9.266,14.005,0,14.005
				h46.523l11.105-41.454c0.88-3.293,3.306-5.784,6.282-6.908l10.331-38.558c1.56-5.817,1.652-7.517,1.3-14.249
				c-0.611-11.72-7.741-17.724-16.396-22.436c-3.706-2.019-10.955-2.463-18.679-2.463H89.094z"/>
		</defs>
		<clipPath id="SVGID_2_">
			<use xlink:href="#SVGID_1_"  overflow="visible"/>
		</clipPath>
		<rect x="19.091" y="31.031" clip-path="url(#SVGID_2_)" fill="#FFFFFF" width="148.676" height="126.066"/>
	</g>
	<g>
		<path fill-rule="evenodd" clip-rule="evenodd" fill="#FFFFFF" d="M38.067,87.063c-9.253,0-9.263,14.006,0,14.006h13.052
			c9.263,0,9.259-14.006,0-14.006H38.067z M69.954,59.044c3.866,0,6.999,3.138,6.999,7.003c0,3.868-3.133,7.005-6.999,7.005
			c-3.871,0-7.004-3.137-7.004-7.005C62.95,62.182,66.083,59.044,69.954,59.044 M53.717,143.093c-9.256,0-9.261,14.005,0,14.005
			h13.054c9.26,0,9.26-14.005,0-14.005H53.717z"/>
		<path fill-rule="evenodd" clip-rule="evenodd" fill="#FFFFFF" d="M129.423,0.128l122.881,32.928l-0.992,3.722L128.433,3.853
			L129.423,0.128z M127.654,6.746l61.438,16.464l61.438,16.462l-0.994,3.728c-15.813,9.126-46.64-9.733-63.129,15.676l-2.64-0.705
			l-15.546,58.019l0.151,0.043c2.195,0.587,3.505,2.859,2.918,5.043l-9.539,35.623h-17.068l10.688-39.887
			c0.588-2.186,2.857-3.499,5.046-2.913l0.154,0.045l15.55-58.022l-2.639-0.704c-1.578-30.257-37.697-29.328-46.834-45.145
			L127.654,6.746z"/>
	</g>
	<g>
		<path fill="#FFFFFF" d="M4.405,203.091c-1.79-0.796-3.257-1.932-4.398-3.406l4.061-4.874c1.714,2.316,3.67,3.476,5.866,3.476
			c2.978,0,4.468-1.745,4.468-5.234v-15.025H3.3v-5.868h18.366v20.488c0,3.878-0.963,6.788-2.889,8.73
			c-1.925,1.939-4.753,2.91-8.483,2.91C8.158,204.287,6.195,203.89,4.405,203.091z"/>
		<path fill="#FFFFFF" d="M66,202.167c-2.633-1.413-4.693-3.363-6.183-5.844c-1.489-2.483-2.234-5.271-2.234-8.37
			s0.745-5.89,2.234-8.372c1.489-2.48,3.55-4.428,6.183-5.842c2.632-1.414,5.587-2.122,8.866-2.122c3.278,0,6.228,0.708,8.845,2.122
			c2.616,1.414,4.678,3.361,6.183,5.842c1.503,2.482,2.256,5.273,2.256,8.372s-0.753,5.887-2.256,8.37
			c-1.505,2.48-3.566,4.431-6.183,5.844c-2.617,1.414-5.566,2.12-8.845,2.12C71.587,204.287,68.632,203.581,66,202.167z
			 M79.92,196.774c1.504-0.857,2.686-2.054,3.543-3.587c0.857-1.536,1.285-3.279,1.285-5.234s-0.428-3.7-1.285-5.236
			c-0.857-1.534-2.039-2.73-3.543-3.587c-1.505-0.857-3.188-1.287-5.054-1.287s-3.55,0.43-5.055,1.287
			c-1.504,0.856-2.685,2.053-3.541,3.587c-0.857,1.536-1.287,3.281-1.287,5.236s0.43,3.698,1.287,5.234
			c0.856,1.533,2.037,2.729,3.541,3.587c1.505,0.856,3.189,1.286,5.055,1.286S78.415,197.631,79.92,196.774z"/>
		<path fill="#FFFFFF" d="M131.475,203.271c-2.332-0.677-4.205-1.558-5.618-2.64l2.481-5.505c1.354,0.992,2.963,1.79,4.828,2.393
			s3.73,0.902,5.596,0.902c2.076,0,3.61-0.308,4.604-0.926c0.992-0.616,1.488-1.436,1.488-2.46c0-0.75-0.294-1.377-0.88-1.873
			s-1.338-0.894-2.256-1.196c-0.918-0.3-2.159-0.631-3.723-0.992c-2.407-0.57-4.377-1.144-5.912-1.714
			c-1.533-0.57-2.851-1.488-3.948-2.753c-1.099-1.263-1.646-2.947-1.646-5.054c0-1.834,0.496-3.497,1.489-4.985
			c0.993-1.491,2.489-2.671,4.489-3.544c2-0.87,4.445-1.308,7.333-1.308c2.015,0,3.985,0.241,5.911,0.721
			c1.925,0.483,3.609,1.176,5.054,2.078l-2.256,5.55c-2.918-1.656-5.836-2.483-8.755-2.483c-2.045,0-3.558,0.331-4.534,0.995
			c-0.979,0.66-1.467,1.533-1.467,2.615s0.564,1.889,1.692,2.414c1.128,0.528,2.85,1.046,5.167,1.558
			c2.406,0.573,4.377,1.144,5.911,1.714c1.534,0.572,2.851,1.475,3.948,2.708c1.098,1.234,1.646,2.902,1.646,5.009
			c0,1.804-0.504,3.451-1.511,4.939c-1.008,1.491-2.521,2.672-4.535,3.545c-2.017,0.87-4.468,1.308-7.355,1.308
			C136.22,204.287,133.805,203.947,131.475,203.271z"/>
		<path fill="#FFFFFF" d="M212.269,197.881v5.865h-24.457v-31.588h23.871v5.868h-16.607v6.857h14.665v5.686h-14.665v7.312H212.269z"
			/>
		<path fill="#FFFFFF" d="M268.897,203.746l-6.091-8.8h-0.361h-6.361v8.8h-7.312v-31.588h13.673c2.799,0,5.227,0.467,7.288,1.4
			c2.062,0.932,3.647,2.255,4.762,3.969c1.111,1.717,1.669,3.746,1.669,6.094c0,2.345-0.565,4.369-1.692,6.067
			c-1.128,1.7-2.73,3.003-4.805,3.905l7.083,10.152H268.897z M267.049,179.536c-1.144-0.947-2.813-1.42-5.009-1.42h-5.956v11.01
			h5.956c2.196,0,3.865-0.48,5.009-1.443s1.714-2.318,1.714-4.062C268.763,181.847,268.192,180.485,267.049,179.536z"/>
	</g>
	<g>
		<path fill="#FFFFFF" d="M296.764,170.797c1.006,0.576,1.796,1.366,2.372,2.374c0.575,1.006,0.864,2.123,0.864,3.349
			s-0.294,2.351-0.883,3.369c-0.587,1.019-1.388,1.822-2.401,2.411c-1.014,0.587-2.133,0.881-3.358,0.881s-2.343-0.294-3.348-0.881
			c-1.009-0.589-1.802-1.39-2.386-2.403c-0.581-1.014-0.872-2.125-0.872-3.34c0-1.213,0.291-2.327,0.872-3.338
			c0.584-1.013,1.38-1.814,2.394-2.403c1.013-0.586,2.138-0.881,3.377-0.881S295.756,170.222,296.764,170.797z M296.087,181.239
			c0.82-0.48,1.465-1.139,1.935-1.972c0.467-0.83,0.703-1.745,0.703-2.748c0-1.014-0.229-1.926-0.685-2.738
			c-0.459-0.814-1.094-1.453-1.905-1.923c-0.814-0.47-1.727-0.703-2.74-0.703s-1.926,0.236-2.738,0.711
			c-0.814,0.478-1.451,1.127-1.915,1.952c-0.462,0.825-0.695,1.738-0.695,2.738c0,1.003,0.233,1.915,0.695,2.74
			c0.464,0.825,1.099,1.475,1.905,1.952c0.806,0.476,1.711,0.711,2.711,0.711S295.268,181.722,296.087,181.239z M296.501,176.867
			c-0.233,0.382-0.573,0.679-1.024,0.891l1.595,2.441h-1.95l-1.368-2.104h-0.077h-1.218v2.104h-1.952v-7.282h3.17
			c0.989,0,1.764,0.235,2.326,0.705c0.563,0.467,0.844,1.096,0.844,1.884C296.846,176.031,296.731,176.484,296.501,176.867z
			 M293.546,176.634c0.438,0,0.777-0.099,1.021-0.292c0.244-0.194,0.366-0.473,0.366-0.836c0-0.36-0.122-0.642-0.366-0.844
			c-0.244-0.199-0.584-0.3-1.021-0.3h-1.109v2.271H293.546z"/>
	</g>
	<g>
		<path fill="#FFFFFF" d="M2.014,229.381c-0.86-0.329-1.531-0.753-2.014-1.273l0.427-0.703c0.458,0.483,1.072,0.876,1.846,1.178
			c0.772,0.303,1.586,0.454,2.44,0.454c1.236,0,2.17-0.233,2.801-0.706c0.631-0.47,0.946-1.082,0.946-1.836
			c0-0.581-0.167-1.045-0.501-1.39c-0.334-0.348-0.749-0.613-1.243-0.799c-0.495-0.186-1.162-0.377-2.003-0.575
			c-0.953-0.233-1.717-0.465-2.292-0.688s-1.064-0.564-1.466-1.029c-0.402-0.464-0.603-1.085-0.603-1.865
			c0-0.628,0.167-1.207,0.501-1.734c0.333-0.525,0.844-0.942,1.53-1.252c0.687-0.309,1.543-0.462,2.569-0.462
			c0.717,0,1.423,0.104,2.115,0.313c0.692,0.213,1.292,0.496,1.8,0.854l-0.353,0.762c-0.521-0.358-1.092-0.632-1.717-0.817
			c-0.624-0.186-1.24-0.278-1.846-0.278c-1.199,0-2.108,0.241-2.727,0.724c-0.619,0.483-0.929,1.106-0.929,1.873
			c0,0.584,0.168,1.046,0.502,1.394c0.334,0.345,0.748,0.612,1.243,0.798c0.494,0.184,1.168,0.382,2.021,0.592
			c0.953,0.236,1.714,0.464,2.282,0.688c0.568,0.223,1.055,0.56,1.457,1.011c0.401,0.45,0.602,1.061,0.602,1.827
			c0,0.632-0.17,1.207-0.509,1.725c-0.341,0.521-0.864,0.937-1.568,1.244c-0.705,0.311-1.571,0.465-2.597,0.465
			C3.778,229.872,2.872,229.707,2.014,229.381z"/>
		<path fill="#FFFFFF" d="M24.545,228.925v0.854h-8.961v-12.986h8.683v0.852H16.53v5.12h6.92v0.836h-6.92v5.324H24.545z"/>
		<path fill="#FFFFFF" d="M39.98,229.779l-3.098-4.343c-0.458,0.063-0.879,0.093-1.262,0.093H31.91v4.25h-0.946v-12.986h4.657
			c1.633,0,2.912,0.385,3.841,1.159c0.927,0.772,1.391,1.844,1.391,3.218c0,1.027-0.263,1.889-0.788,2.59
			c-0.526,0.697-1.277,1.188-2.254,1.472l3.247,4.548H39.98z M35.621,224.696c1.385,0,2.442-0.309,3.172-0.918
			c0.729-0.613,1.095-1.483,1.095-2.608s-0.365-1.995-1.095-2.607c-0.729-0.61-1.787-0.918-3.172-0.918H31.91v7.052H35.621z"/>
		<path fill="#FFFFFF" d="M57.661,216.793l-5.789,12.986h-0.946l-5.788-12.986h1.04l5.25,11.76l5.25-11.76H57.661z"/>
		<path fill="#FFFFFF" d="M62.708,216.793h0.945v12.986h-0.945V216.793z"/>
		<path fill="#FFFFFF" d="M73.199,229.018c-1.021-0.567-1.824-1.354-2.412-2.355c-0.588-1.003-0.881-2.128-0.881-3.378
			c0-1.249,0.293-2.374,0.881-3.377c0.588-1,1.392-1.785,2.412-2.355c1.021-0.567,2.167-0.852,3.441-0.852
			c0.939,0,1.806,0.151,2.597,0.453c0.792,0.303,1.466,0.751,2.023,1.346l-0.595,0.612c-1.038-1.026-2.368-1.541-3.988-1.541
			c-1.089,0-2.078,0.249-2.969,0.743c-0.89,0.493-1.589,1.178-2.097,2.05c-0.507,0.87-0.761,1.847-0.761,2.921
			c0,1.077,0.254,2.051,0.761,2.924c0.508,0.87,1.207,1.555,2.097,2.048c0.891,0.496,1.88,0.743,2.969,0.743
			c1.607,0,2.938-0.521,3.988-1.558l0.595,0.61c-0.558,0.595-1.234,1.048-2.032,1.355c-0.797,0.311-1.661,0.465-2.588,0.465
			C75.366,229.872,74.22,229.588,73.199,229.018z"/>
		<path fill="#FFFFFF" d="M87.4,216.793h0.946v12.986H87.4V216.793z"/>
		<path fill="#FFFFFF" d="M97.883,229.01c-1.027-0.576-1.834-1.364-2.421-2.366c-0.588-1.003-0.881-2.123-0.881-3.359
			s0.293-2.355,0.881-3.358c0.587-1,1.394-1.788,2.421-2.363c1.026-0.576,2.177-0.862,3.451-0.862c1.273,0,2.424,0.284,3.45,0.852
			c1.026,0.57,1.834,1.355,2.422,2.355c0.587,1.003,0.881,2.128,0.881,3.377c0,1.25-0.294,2.375-0.881,3.378
			c-0.588,1.002-1.396,1.788-2.422,2.355c-1.026,0.57-2.177,0.854-3.45,0.854C100.06,229.872,98.909,229.583,97.883,229.01z
			 M104.284,228.256c0.878-0.493,1.57-1.178,2.077-2.048c0.507-0.873,0.761-1.847,0.761-2.924c0-1.074-0.254-2.051-0.761-2.921
			c-0.507-0.872-1.199-1.557-2.077-2.05c-0.879-0.494-1.863-0.743-2.95-0.743c-1.089,0-2.075,0.249-2.96,0.743
			c-0.885,0.493-1.579,1.178-2.087,2.05c-0.507,0.87-0.761,1.847-0.761,2.921c0,1.077,0.254,2.051,0.761,2.924
			c0.508,0.87,1.202,1.555,2.087,2.048c0.885,0.496,1.871,0.743,2.96,0.743C102.421,228.999,103.405,228.752,104.284,228.256z"/>
		<path fill="#FFFFFF" d="M115.017,229.381c-0.86-0.329-1.53-0.753-2.013-1.273l0.427-0.703c0.457,0.483,1.072,0.876,1.846,1.178
			c0.772,0.303,1.586,0.454,2.439,0.454c1.237,0,2.171-0.233,2.802-0.706c0.631-0.47,0.946-1.082,0.946-1.836
			c0-0.581-0.167-1.045-0.501-1.39c-0.334-0.348-0.749-0.613-1.243-0.799c-0.495-0.186-1.163-0.377-2.004-0.575
			c-0.953-0.233-1.716-0.465-2.291-0.688s-1.064-0.564-1.466-1.029c-0.402-0.464-0.604-1.085-0.604-1.865
			c0-0.628,0.168-1.207,0.501-1.734c0.335-0.525,0.845-0.942,1.531-1.252c0.687-0.309,1.542-0.462,2.569-0.462
			c0.718,0,1.422,0.104,2.115,0.313c0.692,0.213,1.292,0.496,1.8,0.854l-0.353,0.762c-0.52-0.358-1.092-0.632-1.717-0.817
			c-0.624-0.186-1.24-0.278-1.846-0.278c-1.199,0-2.108,0.241-2.728,0.724c-0.618,0.483-0.927,1.106-0.927,1.873
			c0,0.584,0.167,1.046,0.5,1.394c0.334,0.345,0.748,0.612,1.244,0.798c0.494,0.184,1.168,0.382,2.021,0.592
			c0.952,0.236,1.713,0.464,2.282,0.688c0.568,0.223,1.055,0.56,1.456,1.011c0.402,0.45,0.603,1.061,0.603,1.827
			c0,0.632-0.169,1.207-0.51,1.725c-0.34,0.521-0.862,0.937-1.567,1.244c-0.705,0.311-1.571,0.465-2.598,0.465
			C116.781,229.872,115.876,229.707,115.017,229.381z"/>
		<path fill="#FFFFFF" d="M136.324,216.793h5.139c1.348,0,2.545,0.275,3.591,0.833c1.044,0.557,1.857,1.326,2.439,2.311
			c0.58,0.984,0.871,2.099,0.871,3.348c0,1.25-0.291,2.367-0.871,3.349c-0.582,0.984-1.396,1.753-2.439,2.311
			c-1.046,0.557-2.243,0.836-3.591,0.836h-5.139V216.793z M141.389,228.925c1.199,0,2.258-0.239,3.173-0.714s1.62-1.141,2.115-1.995
			c0.493-0.854,0.741-1.83,0.741-2.932c0-1.101-0.248-2.077-0.741-2.931c-0.495-0.852-1.2-1.518-2.115-1.995
			c-0.915-0.476-1.974-0.714-3.173-0.714h-4.119v11.28H141.389z"/>
		<path fill="#FFFFFF" d="M163.578,228.925v0.854h-8.962v-12.986h8.683v0.852h-7.735v5.12h6.919v0.836h-6.919v5.324H163.578z"/>
		<path fill="#FFFFFF" d="M177.733,216.793h0.944v12.132h7.479v0.854h-8.423V216.793z"/>
		<path fill="#FFFFFF" d="M191.555,216.793h0.945v12.986h-0.945V216.793z"/>
		<path fill="#FFFFFF" d="M212.277,229.779l-0.02-11.113l-5.436,9.386h-0.463l-5.437-9.349v11.076h-0.927v-12.986h0.798
			l5.806,10.036l5.808-10.036h0.779l0.019,12.986H212.277z"/>
		<path fill="#FFFFFF" d="M229.179,217.952c0.929,0.772,1.393,1.844,1.393,3.218c0,1.361-0.464,2.428-1.393,3.199
			c-0.928,0.775-2.207,1.16-3.841,1.16h-3.71v4.25h-0.946v-12.986h4.656C226.972,216.793,228.251,217.178,229.179,217.952z
			 M228.512,223.768c0.729-0.605,1.094-1.473,1.094-2.598s-0.364-1.995-1.094-2.607c-0.731-0.61-1.787-0.918-3.174-0.918h-3.71
			v7.033h3.71C226.725,224.678,227.78,224.375,228.512,223.768z"/>
		<path fill="#FFFFFF" d="M236.729,216.793h0.947v12.986h-0.947V216.793z"/>
		<path fill="#FFFFFF" d="M254.132,228.925v0.854h-8.962v-12.986h8.684v0.852h-7.736v5.12h6.922v0.836h-6.922v5.324H254.132z"/>
		<path fill="#FFFFFF" d="M269.625,228.925v0.854h-10.466v-0.669l8.961-11.466h-8.85v-0.852h10.149v0.666l-8.942,11.466H269.625z"/>
		<path fill="#FFFFFF" d="M283.536,226.123h-7.531l-1.65,3.656h-1.021l5.975-12.986h0.947l5.972,12.986h-1.019L283.536,226.123z
			 M283.187,225.324l-3.415-7.494l-3.396,7.494H283.187z"/>
	</g>
</g>
</svg>
